<svg id="Laag_1" data-name="Laag 1" xmlns="http://www.w3.org/2000/svg" viewBox="0 0 250 250"><defs><style>.cls-1{fill:#1d1d1b;}</style></defs><path class="cls-1" d="M67.08,171.61v1.24H17.63v-1.24c4.47-.16,23.49-3.18,24.1-36.26H43C43.58,168.43,62.61,171.45,67.08,171.61Z"/><path class="cls-1" d="M108.48,172.85l20.84-60s-8.86-32.36-29.09-59.74-67.8-29.88-82.6-29.26v1.27s30.36,7.07,45.53,43S108.48,172.85,108.48,172.85Z"/><path class="cls-1" d="M208.27,73.75v61.6h0c.61,33.08,19.63,36.1,24.1,36.26v1.24H139.3v-1.24c4.48-.16,23.5-3.18,24.11-36.26V73.75s-.91-49.93,69-49.93v1.26S208.27,42.35,208.27,73.75Z"/><circle class="cls-1" cx="185.84" cy="207.48" r="18.7"/></svg>